<?xml version="1.0" encoding="UTF-8"?>
<!-- Copyright (c) TikTok Pte. Ltd. Licensed under the CC BY-SA license. -->
<svg version="1.1" viewBox="0 0 303.6875 289.47873" xmlns="http://www.w3.org/2000/svg" xmlns:cc="http://creativecommons.org/ns#" xmlns:dc="http://purl.org/dc/elements/1.1/" xmlns:rdf="http://www.w3.org/1999/02/22-rdf-syntax-ns#"><title>Sparo</title><metadata><rdf:RDF><cc:Work rdf:about=""><dc:format>image/svg+xml</dc:format><dc:type rdf:resource="http://purl.org/dc/dcmitype/StillImage"/><dc:title>Sparo</dc:title><dc:creator><cc:Agent><dc:title>https://github.com/octogonz</dc:title></cc:Agent></dc:creator><dc:description>Copyright (c) TikTok Pte. Ltd.</dc:description><cc:license rdf:resource="http://creativecommons.org/licenses/by-sa/4.0/"/></cc:Work><cc:License rdf:about="http://creativecommons.org/licenses/by-sa/4.0/"><cc:permits rdf:resource="http://creativecommons.org/ns#Reproduction"/><cc:permits rdf:resource="http://creativecommons.org/ns#Distribution"/><cc:requires rdf:resource="http://creativecommons.org/ns#Notice"/><cc:requires rdf:resource="http://creativecommons.org/ns#Attribution"/><cc:permits rdf:resource="http://creativecommons.org/ns#DerivativeWorks"/><cc:requires rdf:resource="http://creativecommons.org/ns#ShareAlike"/></cc:License></rdf:RDF></metadata><g stroke-width="0"><polygon transform="translate(-110.35187,-187.70584)" points="207.89386 415.76139 218.9772 414.34473 239.83831 396.56695 241.11609 397.8725 222.89386 415.59473 231.39386 421.01139 244.06053 418.92806 252.50497 400.51139 254.17164 401.20584 247.14386 419.59473 262.1022 423.59473 262.08831 423.59473 277.04664 419.59473 270.01886 401.20584 271.68553 400.51139 280.12997 418.92806 292.79664 421.01139 301.29664 415.59473 283.07442 397.8725 284.3522 396.56695 305.21331 414.34473 316.29664 415.76139 322.79664 406.67806 262.08831 378.17806 262.1022 378.17806 201.39386 406.67806" fill="#c49361"/><polygon transform="translate(-110.35187,-187.70584)" points="353.03937 366.59473 321.29631 337.65723 319.96298 338.94889 360.03937 379.70584 343.26159 393.03917 315.48381 379.3725 302.66437 354.71973 300.98381 355.73362 311.15048 386.3725 275.01853 381.33084 289.79631 333.21973 339.96695 273.66417 382.81714 210.92806 388.59492 187.70584 401.15048 208.26139 399.01853 229.33084 366.31714 271.42806 367.56714 272.71973 407.79631 226.55306 413.48381 254.92806 401.70603 269.92806 356.42131 289.42806 357.10881 291.36556 414.03937 269.03917 410.3727 298.81695 394.15048 306.26139 347.46298 304.78223 346.98381 306.65723 405.92825 312.59473 393.48381 339.03917 374.81714 338.59473 336.48381 320.20584 335.31714 321.76139 385.81714 350.26139 370.48381 369.59473" fill="#c49361"/><polygon transform="translate(-110.35187,-187.70584)" points="171.35187 366.59473 203.09492 337.65723 204.42825 338.94889 164.35187 379.70584 181.12964 393.03917 208.90742 379.3725 221.72687 354.71973 223.40742 355.73362 213.24075 386.3725 249.3727 381.33084 234.59492 333.21973 184.42429 273.66417 141.57409 210.92806 135.79631 187.70584 123.24075 208.26139 125.3727 229.33084 158.07409 271.42806 156.82409 272.71973 116.59492 226.55306 110.90742 254.92806 122.6852 269.92806 167.96992 289.42806 167.28242 291.36556 110.35187 269.03917 114.01853 298.81695 130.24075 306.26139 176.92825 304.78223 177.40742 306.65723 118.46298 312.59473 130.90742 339.03917 149.57409 338.59473 187.90742 320.20584 189.07409 321.76139 138.57409 350.26139 153.90742 369.59473" fill="#f0d44d"/><polygon transform="translate(-110.35187,-187.70584)" points="184.31747 273.70584 262.09525 317.70584 339.87303 273.70584 341.42859 275.48362 272.98414 356.81695 251.20636 356.81695 182.76192 275.48362" fill="#aa7d4b"/><polygon transform="translate(-110.35187,-187.70584)" points="232.16668 300.82049 245.94446 290.32489 278.24605 290.32489 292.02382 300.82049 297.13493 367.28119 281.8016 392.54711 242.3889 392.54711 227.05557 367.28119" fill="#a07245"/><polygon transform="translate(-110.35187,-187.70584)" points="239.27779 323.0772 227.05557 367.28119 232.16668 300.82049 244.16668 301.58079 262.55557 316.70789 262.55557 320.62236" fill="#b4855b"/></g><g fill="#444545" stroke-width="0"><path d="m87.303784 278.07834c-1.7334 0-3.5498-0.31641-5.4497-0.9502-1.89991-0.63281-3.48389-1.69921-4.75-3.19921-0.26709-0.33301-0.375-0.69141-0.3252-1.0752 0.0503-0.38281 0.25781-0.70801 0.625-0.97559 0.33301-0.23242 0.69141-0.3164 1.0752-0.25 0.38281 0.0674 0.6914 0.25 0.9248 0.55079 0.96631 1.13281 2.1416 1.9248 3.5249 2.375 1.38282 0.44921 2.8916 0.6748 4.52539 0.6748 2.79981 0 4.78272-0.5 5.94971-1.5 1.1665-1 1.75-2.16699 1.75-3.5 0-1.2998-0.625-2.375-1.875-3.22559-1.25-0.84961-3.1748-1.45703-5.7749-1.82421-3.3335-0.4668-5.79981-1.36719-7.3999-2.7002-1.6001-1.33301-2.39991-2.88281-2.39991-4.65039 0-1.66602 0.41602-3.0752 1.25-4.22461 0.83252-1.15039 1.97461-2.0166 3.42481-2.60059 1.45019-0.58203 3.10791-0.875 4.9751-0.875 2.26611 0 4.18261 0.40918 5.75 1.22559 1.5664 0.81738 2.83252 1.9082 3.7998 3.27441 0.2666 0.33399 0.35791 0.69239 0.2749 1.0752-0.0835 0.38379-0.34179 0.69238-0.7749 0.9248-0.3335 0.16797-0.68359 0.21778-1.0498 0.15039-0.36719-0.0664-0.6836-0.2666-0.9502-0.5996-0.8335-1.06641-1.84228-1.875-3.0249-2.42579-1.1836-0.5498-2.5586-0.82421-4.125-0.82421-2.1001 0-3.7334 0.44921-4.8999 1.3496-1.16748 0.9004-1.75 1.9834-1.75 3.25 0 0.86719 0.24121 1.625 0.72509 2.2754 0.48243 0.64941 1.27491 1.19921 2.375 1.64941 1.09961 0.45019 2.56641 0.80859 4.39991 1.07519 2.5 0.33399 4.47509 0.9004 5.9248 1.7002 1.4502 0.7998 2.48291 1.72461 3.1001 2.77441 0.61621 1.05079 0.9248 2.17579 0.9248 3.375 0 1.56739-0.5 2.9336-1.5 4.10059s-2.31689 2.05859-3.9497 2.6748c-1.63379 0.61719-3.39991 0.92481-5.3003 0.92481z"/><path d="m105.80378 289.47873c-0.43359 0-0.79199-0.14258-1.07519-0.4248-0.28321-0.28418-0.42481-0.64258-0.42481-1.0752v-24.15039c0.0664-2.63281 0.70801-4.97461 1.92481-7.02441 1.21679-2.05079 2.875-3.67579 4.9751-4.875 2.10009-1.2002 4.45019-1.80079 7.05029-1.80079 2.66601 0 5.05762 0.60938 7.1748 1.8252 2.11621 1.21777 3.78272 2.88379 5 5 1.21631 2.11719 1.8252 4.50879 1.8252 7.1748 0 2.63379-0.60889 5.00879-1.8252 7.125-1.21728 2.11719-2.88379 3.78418-5 5-2.11718 1.21778-4.50879 1.8252-7.1748 1.8252-2.40039 0-4.5586-0.5166-6.4751-1.54981-1.91748-1.0332-3.40869-2.41601-4.4751-4.15039v15.60059c0 0.43262-0.13379 0.79102-0.3999 1.0752-0.26709 0.28222-0.63379 0.4248-1.1001 0.4248zm12.4502-14.2002c2.09961 0 3.97461-0.49121 5.625-1.4746 1.6499-0.9834 2.95752-2.31641 3.9248-4 0.96631-1.6836 1.4502-3.5752 1.4502-5.67579 0-2.13281-0.48389-4.04101-1.4502-5.72461-0.96728-1.68261-2.2749-3.0166-3.9248-4-1.65039-0.98242-3.52539-1.4746-5.625-1.4746-2.06738 0-3.9336 0.49218-5.6001 1.4746-1.66748 0.9834-2.9751 2.31739-3.92529 4-0.94971 1.6836-1.42481 3.5918-1.42481 5.72461 0 2.10059 0.4751 3.99219 1.42481 5.67579 0.95019 1.68359 2.25781 3.0166 3.92529 4 1.6665 0.98339 3.53272 1.4746 5.6001 1.4746z"/><path d="m151.75349 278.07834c-2.66699 0-5.05859-0.60742-7.1748-1.8252-2.11719-1.21582-3.7837-2.88281-5-5-1.21729-2.11621-1.8252-4.49121-1.8252-7.125 0-2.66601 0.60791-5.05761 1.8252-7.1748 1.2163-2.11621 2.88281-3.78223 5-5 2.11621-1.21582 4.50781-1.8252 7.1748-1.8252 2.66602 0 5.0498 0.60938 7.14941 1.8252 2.10059 1.21777 3.75782 2.88379 4.97559 5 1.21582 2.11719 1.8252 4.50879 1.8252 7.1748l-1.25 2c0 2.26758-0.5586 4.30079-1.67579 6.10059-1.11718 1.79981-2.625 3.22461-4.52441 4.27441-1.90039 1.05079-4.06738 1.5752-6.5 1.5752zm0-2.79981c2.09961 0 3.97461-0.49121 5.625-1.4746 1.64941-0.9834 2.9502-2.31641 3.89941-4 0.9502-1.6836 1.42579-3.5752 1.42579-5.67579 0-2.13281-0.47559-4.04101-1.42579-5.72461-0.94921-1.68261-2.25-3.0166-3.89941-4-1.65039-0.98242-3.52539-1.4746-5.625-1.4746-2.06738 0-3.93359 0.49218-5.6001 1.4746-1.66699 0.9834-2.9834 2.31739-3.9497 4-0.96729 1.6836-1.4502 3.5918-1.4502 5.72461 0 2.10059 0.48291 3.99219 1.4502 5.67579 0.9663 1.68359 2.28271 3.0166 3.9497 4 1.66651 0.98339 3.53272 1.4746 5.6001 1.4746zm12.4502 2.5c-0.4336 0-0.79297-0.1416-1.0752-0.4248-0.28418-0.2832-0.4248-0.6416-0.4248-1.0752v-9.15039l0.94921-3h2.05079v12.15039c0 0.4336-0.13379 0.792-0.4004 1.0752-0.26757 0.2832-0.63378 0.4248-1.0996 0.4248z"/><path d="m174.20271 277.77853c-0.43359 0-0.79199-0.1416-1.0752-0.4248-0.2832-0.2832-0.4248-0.6416-0.4248-1.0752v-24.3496c0-0.4668 0.1416-0.83301 0.4248-1.10059 0.28321-0.2666 0.64161-0.39941 1.0752-0.39941 0.4668 0 0.83301 0.13281 1.10058 0.39941 0.26563 0.26758 0.39942 0.63379 0.39942 1.10059v24.3496c0 0.4336-0.13379 0.792-0.39942 1.0752-0.26757 0.2832-0.63378 0.4248-1.10058 0.4248zm-0.5-16.70019c0.20019-2.13281 0.7832-4.02441 1.75-5.67481 0.9668-1.65039 2.2168-2.9414 3.75-3.875 1.5332-0.93261 3.2334-1.40039 5.10058-1.40039 1.26563 0 2.25 0.15039 2.94922 0.4502 0.7002 0.2998 0.9668 0.83398 0.80078 1.60059-0.10058 0.5-0.33398 0.7998-0.70019 0.89941-0.36719 0.10059-0.80859 0.1084-1.3252 0.0254-0.51757-0.083-1.09179-0.125-1.72461-0.125-1.66796 0-3.15039 0.34961-4.45019 1.0498-1.29981 0.7002-2.31738 1.65821-3.04981 2.875-0.73437 1.2168-1.10058 2.6084-1.10058 4.17481z"/><path d="m206.60212 278.07834c-2.66601 0-5.05859-0.60742-7.17383-1.8252-2.11718-1.21582-3.78515-2.88281-5-5-1.21875-2.11621-1.82617-4.49121-1.82617-7.125 0-2.66601 0.60742-5.05761 1.82617-7.1748 1.21485-2.11621 2.88282-3.78223 5-5 2.11524-1.21582 4.50782-1.8252 7.17383-1.8252 2.66602 0 5.05078 0.60938 7.15039 1.8252 2.09961 1.21777 3.75782 2.88379 4.97461 5 1.2168 2.11719 1.82617 4.50879 1.82617 7.1748 0 2.63379-0.60937 5.00879-1.82617 7.125-1.21679 2.11719-2.875 3.78418-4.97461 5-2.09961 1.21778-4.48437 1.8252-7.15039 1.8252zm0-2.79981c2.09961 0 3.97461-0.49121 5.625-1.4746 1.65039-0.9834 2.95117-2.31641 3.90039-4 0.94922-1.6836 1.42578-3.5918 1.42578-5.72559 0-2.09961-0.47656-3.99121-1.42578-5.67481-0.94922-1.68261-2.25-3.0166-3.90039-4-1.65039-0.98242-3.52539-1.4746-5.625-1.4746-2.0664 0-3.93359 0.49218-5.59961 1.4746-1.66797 0.9834-2.98437 2.31739-3.94922 4-0.96875 1.6836-1.45117 3.5918-1.45117 5.72461 0 2.10059 0.48242 3.99219 1.45117 5.67579 0.96485 1.68359 2.28125 3.0166 3.94922 4 1.66602 0.98339 3.53321 1.4746 5.59961 1.4746z"/></g></svg>
